<svg width="36" height="36" viewBox="0 0 47 46" fill="none" xmlns="http://www.w3.org/2000/svg" color="black" class="sc-EHOje dOAnFC"><path fill-rule="evenodd" clip-rule="evenodd" d="M23.8198 0.00196488L23.7857 0L23.7516 0.0019879L11.6955 0.704479L11.5618 0.712274L11.4445 0.777108L5.34554 4.14907L5.20524 4.22663L5.12352 4.36454L1.29395 10.8275L1.21535 10.9601L1.21173 11.1142L0.930804 23.0803L0.929034 23.0842L0.930631 23.0876L0.928061 23.1971L0.927734 23.211L0.928065 23.2249L1.21174 35.1673L1.21547 35.3244L1.29689 35.4588L5.12646 41.7812L5.20793 41.9157L5.34554 41.9918L11.4445 45.3638L11.5651 45.4304L11.7027 45.4368L23.9006 45.9988L23.9274 46L23.9543 45.9988L36.4358 45.4368L36.5858 45.43L36.7142 45.3525L42.5295 41.84L42.6538 41.7649L42.729 41.6407L46.5586 35.3183L46.6399 35.1841L46.6437 35.0271L46.9274 23.3658L46.9277 23.3518L46.9274 23.3378L46.6437 11.1144L46.64 10.9551L46.5566 10.8193L42.5852 4.35642L42.5039 4.22417L42.3681 4.14907L36.2691 0.777108L36.1517 0.712172L36.0177 0.704456L23.8198 0.00196488ZM2.16813 25.7615L2.38715 34.9822L5.2379 39.6886L5.89584 33.8231L5.89648 33.8173L5.58681 33.1482L2.16813 25.7615ZM6.83845 33.2835L12.4676 33.0462L11.1706 24.4031L6.89805 33.1613L6.83845 33.2835ZM11.2124 21.8206L12.6033 13.095L6.94723 12.8615L11.2124 21.8206ZM5.87514 12.1333L5.24101 6.48L2.38727 11.2961L2.1753 20.3249L5.58969 12.7653L5.87514 12.1333ZM21.1901 1.33272L11.8979 1.87416L7.44151 4.33799L13.3767 5.21988L13.4037 5.22389L13.8087 5.02152L21.1901 1.33272ZM13.8798 6.34495V11.8501L22.9984 10.5074L13.8798 6.34495ZM24.7516 10.5355L33.5353 11.8466L33.42 6.47708L24.7516 10.5355ZM34.2742 5.28957L40.2911 4.34849L35.8159 1.87427L26.349 1.32906L33.748 5.02663L34.2742 5.28957ZM34.5988 6.43262L41.4077 5.36767L40.6761 11.6829L34.7166 11.9199L34.5988 6.43262ZM36.1054 21.6569L34.8208 13.0962L40.6126 12.8658L36.1054 21.6569ZM36.0656 24.3836L34.6872 33.0313L40.7279 33.1487L40.6967 33.09L36.0656 24.3836ZM41.7981 33.5316L41.8165 33.6718L42.5912 39.5917L45.4684 34.8415L45.7001 25.3156L42.0219 33.0605L41.7981 33.5316ZM45.6873 20.7396L45.4683 11.3011L42.4725 6.42582L41.7984 12.2442L42.017 12.7217L45.6873 20.7396ZM40.7128 34.3281L41.5397 40.6464L34.5878 39.6966V34.2091L40.7128 34.3281ZM35.1034 22.9272L33.4844 33.084L23.925 34.4177L13.6654 33.0805L12.1847 23.2137L13.8043 13.0535L23.7853 11.5838L33.6214 13.052L35.1034 22.9272ZM11.8946 44.2649L7.43922 41.8016L13.2354 40.935L13.7379 40.8598V40.7843L13.9776 40.8952L22.3049 44.7445L11.8946 44.2649ZM25.5205 44.7476L36.2329 44.2653L40.4907 41.6935L34.0354 40.8115L33.8545 40.8952L25.5205 44.7476ZM33.4084 39.3711L25.2944 35.4176L33.4084 34.2855V39.3711ZM22.5235 35.4245L13.9641 39.595L13.7379 39.7052V34.2794L22.5235 35.4245ZM7.01163 34.4567L12.5585 34.2229V39.8436L6.30247 40.779L7.01163 34.4567ZM7.01158 11.6837L6.30239 5.36116L12.7003 6.3118V11.9185L7.01158 11.6837ZM23.7732 1.35521L15.1822 5.64849L23.9101 9.63261L32.3911 5.66191L23.7732 1.35521ZM23.916 36.0527L15.3403 40.2312L23.916 44.1954L32.4918 40.2312L23.916 36.0527ZM41.3288 14.0641L45.4534 23.0745L41.3292 31.7583L36.7096 23.0736L41.3288 14.0641ZM10.4994 23.078L6.2567 14.1663L2.23148 23.0783L6.25657 31.7753L10.4994 23.078Z" fill="currentColor"></path></svg>
