<svg width="36" height="36" viewBox="0 0 35 52" fill="none" xmlns="http://www.w3.org/2000/svg" color="black" class="sc-EHOje dOAnFC"><path fill-rule="evenodd" clip-rule="evenodd" d="M7.66649 0.5H7.46276L7.30598 0.630606L0.204003 6.54699L0 6.71694V6.98305V45.8621V46.1545L0.237295 46.3239L7.33927 51.3951L7.48619 51.5H7.66649H26.7872H26.9627L27.1072 51.4002L34.7555 46.1177L35 45.9488V45.6508V6.98305V6.70433L34.7801 6.5342L27.1318 0.617815L26.9795 0.5H26.7872H7.66649ZM1.27963 7.12371L7.65831 1.80987L8.66753 3.70936L3.21027 8.5449L1.27963 7.12371ZM1.12903 45.5538V45.5698L7.42388 50.0647L8.43958 48.153L3.10355 44.1003L1.12903 45.5538ZM1.12903 44.1484L2.82258 42.9017V9.66493L1.12903 8.41826V44.1484ZM4.05378 43.4008L8.97758 47.1404L9.99872 45.2185L6.03788 41.9403L4.05378 43.4008ZM5.64516 40.824L3.95161 42.0706V10.496L5.64516 11.7427V40.824ZM6.9772 41.2488L10.5408 44.1982L11.5717 42.258L8.95372 39.7939L6.9772 41.2488ZM8.46774 38.7462L6.77419 39.9928V12.5738L8.46774 13.8205V38.7462ZM8.92082 12.7486L6.99624 11.3319L10.7775 7.68068L11.7939 9.59361L8.92082 12.7486ZM6.07214 10.6516L4.14215 9.23089L9.21362 4.73719L10.2253 6.64133L6.07214 10.6516ZM8.54301 50.3667L9.44624 48.6667H25.2393H25.4223L26.4384 50.3667H8.54301ZM27.421 49.8077L33.7302 45.4502L31.7682 44.0059L26.3377 47.9953L27.421 49.8077ZM33.871 8.41826V44.1484L32.1774 42.9017V9.66493L33.871 8.41826ZM31.0484 10.496V42.0706L29.3548 40.824V11.7427L31.0484 10.496ZM28.8526 41.8597L30.8133 43.303L25.7544 47.0194L24.6712 45.2072L28.8526 41.8597ZM28.2258 12.5738V39.9928L26.5323 38.7462V13.8205L28.2258 12.5738ZM27.9093 41.1653L25.956 39.7274L23.0028 42.4161L24.0851 44.2267L27.9093 41.1653ZM27.1567 2.06787L33.7061 7.13423L31.7821 8.55055L26.0841 3.86234L27.1567 2.06787ZM25.4969 4.84464L30.842 9.24252L28.9175 10.6593L24.4276 6.63359L25.4969 4.84464ZM23.8363 7.62296L27.9867 11.3444L26.0659 12.7584L22.7734 9.40113L23.8363 7.62296ZM22.0352 43L23.0513 44.7H11.5538L12.457 43H12.5832H22.0352ZM23.7288 45.8333L24.7449 47.5333H10.0484L10.9516 45.8333H23.6915H23.7288ZM7.67771 50.2459L7.90323 50.3667H7.84679L7.67771 50.2459ZM26.0997 1.63333H8.84409L9.74731 3.33333H25.0836L26.0997 1.63333ZM24.4062 4.46667H10.3495L11.2527 6.16667H23.3901L24.4062 4.46667ZM22.7126 7.3H11.8548L12.7581 9H21.6965L22.7126 7.3ZM9.59677 13.6861L12.832 10.1333H21.9072L25.4032 13.6982V38.7006L21.9257 41.8667H12.8065L9.59677 38.8455V13.6861Z" fill="currentColor"></path></svg>