<svg width="36" height="36" viewBox="0 0 29 58" fill="none" xmlns="http://www.w3.org/2000/svg" color="black" class="sc-EHOje dOAnFC"><path d="M14.5534 0.476052C14.5286 0.470826 14.5782 0.48193 14.5534 0.476052C18.9459 4.21475 21.8666 7.8496 24.3663 12.6373C26.9641 17.5732 28.313 23.2113 28.3294 28.8886C28.3651 33.236 27.7249 37.2713 26.2094 41.2987C24.9472 44.6664 23.227 47.9897 21.0611 50.7695C19.0701 53.3384 18.6346 54.0353 14.6025 57.5252C9.52188 53.0556 5.91867 48.1569 3.19294 41.9518C0.914916 36.1609 0.100896 29.4359 1.07425 23.2361C1.63815 19.5974 2.61271 16.5711 4.24264 13.3294C6.76112 8.3053 10.0908 4.23631 14.5534 0.476052ZM13.967 4.11347C13.111 6.23404 12.5891 7.79538 11.8889 9.5955C12.7563 10.0357 13.6115 10.5014 14.4795 10.9391C14.5873 11.0129 14.703 10.9391 14.8035 10.8894C15.5582 10.4884 16.3166 10.0965 17.0737 9.70262C17.1518 9.66212 17.2215 9.61052 17.2845 9.54717C16.382 7.39304 15.4648 4.48138 14.5563 2.32987C14.3443 2.69368 14.2395 3.43846 13.967 4.11347ZM11.5357 4.87923C11.1596 5.31554 9.86834 6.81564 9.53036 7.28788C10.0652 7.86005 10.6012 8.43222 11.1573 8.98153C11.9665 7.06319 13.967 2.35632 13.967 2.35632C13.967 2.35632 12.9542 3.23378 11.5357 4.87923ZM15.2655 2.33029C15.2655 2.33029 17.2033 7.06711 18.0149 8.98871C18.5661 8.43026 19.1094 7.85939 19.6473 7.28592C18.9671 6.42897 18.1016 5.0734 17.336 4.30528C16.0948 2.9652 15.2655 2.33029 15.2655 2.33029ZM8.9283 8.00374C7.78777 9.45376 6.75749 11.0044 5.85621 12.6373C7.43526 11.6752 9.00401 10.6935 10.574 9.71176C10.0282 9.13894 9.4922 8.5524 8.9283 8.00374ZM18.6049 9.70915C20.1615 10.6993 21.7363 11.6641 23.3051 12.6334C22.419 10.9933 21.3826 9.44527 20.2366 8.0057C19.6842 8.5622 19.1385 9.13045 18.6049 9.70915ZM11.6975 10.5452C11.6394 12.1481 11.5413 13.7483 11.4868 15.3499C11.7757 14.9671 12.0192 14.5478 12.2887 14.15C12.8163 13.3251 13.3783 12.5256 13.8847 11.6869C13.1573 11.3022 12.431 10.9168 11.6975 10.5452ZM17.067 10.7483C16.4765 11.0716 15.8732 11.363 15.2857 11.6902C16.0816 12.9371 16.8883 14.1774 17.7194 15.3982C17.5903 13.8058 17.5631 12.2029 17.4722 10.6059C17.3251 10.602 17.1948 10.6817 17.067 10.7483ZM5.33955 14.0533C5.20388 14.1428 5.04761 14.2173 4.95676 14.3662C4.93434 14.6288 4.99431 14.8894 5.01854 15.15C5.22326 17.0455 5.44192 18.9383 5.64059 20.8351C7.27899 19.4746 8.92103 18.114 10.5419 16.7293C10.6351 14.7111 10.7454 12.6915 10.8163 10.6726C8.97797 11.7731 7.16875 12.9351 5.33955 14.0533ZM18.3541 10.6771C18.425 12.6921 18.5431 14.7045 18.6237 16.7195C20.2257 18.1095 21.8769 19.4315 23.4832 20.8149C23.5649 20.7241 23.5462 20.5863 23.5686 20.472C23.7793 18.5164 24.0016 16.5634 24.2118 14.6079C24.2451 14.4341 24.1821 14.2486 24.0259 14.1761C22.365 13.1461 20.7042 12.1147 19.0428 11.0841C18.8157 10.9436 18.5958 10.7895 18.3541 10.6771ZM11.4825 17.02C11.2196 17.5184 11.1676 18.1069 11.0058 18.6457C10.1609 22.0389 9.31413 25.4321 8.46918 28.8252C8.40195 29.0382 8.49886 29.2511 8.54247 29.4575C9.46313 33.1335 10.3771 36.8121 11.2929 40.4888C11.3438 40.6808 11.4159 40.8689 11.5273 41.0302C12.4286 42.4019 13.3293 43.7755 14.2281 45.1504C14.3487 45.3248 14.4444 45.5246 14.6055 45.6638C15.6182 44.1262 16.6237 42.5828 17.6364 41.0439C17.8472 40.737 17.9108 40.3549 18.0022 39.995C18.8999 36.3895 19.7981 32.786 20.697 29.1806C20.7799 28.9428 20.6661 28.7057 20.6164 28.4751C19.7515 25.0029 18.8847 21.5294 18.0198 18.0553C17.9217 17.6797 17.8623 17.2793 17.6497 16.9534C16.6273 15.4021 15.6128 13.845 14.5928 12.2918C13.5407 13.8554 12.5207 15.4465 11.4825 17.02ZM3.99007 16.6111C3.42556 18.0801 2.92889 19.585 2.58727 21.1323C3.32683 21.1604 4.06456 21.2015 4.80291 21.2283C4.63392 19.4929 4.41769 17.7633 4.24264 16.0298C4.14512 16.2166 4.06517 16.4132 3.99007 16.6111ZM24.9284 16.1258C24.7309 17.8234 24.5474 19.5242 24.3663 21.2244C25.1058 21.2166 25.8436 21.1401 26.5855 21.1467C26.2179 19.4537 25.6631 17.811 25.0253 16.2153C25.0016 16.1931 24.9532 16.1474 24.9284 16.1258ZM5.85379 21.8573C5.86711 21.9416 5.88831 22.0258 5.91557 22.1075C6.56245 23.8886 7.23235 25.6594 7.86288 27.4477C7.87924 27.4249 7.91376 27.3765 7.93011 27.353C8.69995 24.3041 9.44314 21.2459 10.2215 18.1996C8.77203 19.4289 7.31109 20.6411 5.85379 21.8573ZM18.9847 18.2512C19.7169 21.3269 20.5189 24.3831 21.2584 27.4569C21.3329 27.3537 21.3753 27.2296 21.4238 27.1113C22.0519 25.3798 22.697 23.6542 23.319 21.9207L23.3014 21.8514C21.8653 20.6477 20.4365 19.4328 18.9847 18.2512ZM1.73324 26.8272C2.66056 25.2662 3.6109 23.7188 4.51763 22.1454C3.80593 22.1342 3.09606 22.0892 2.38497 22.0578C2.03064 23.6189 1.835 25.2231 1.73324 26.8272ZM24.7036 22.1414C24.7097 22.3361 24.8514 22.4804 24.9368 22.6411C25.7757 24.0121 26.5637 25.4197 27.4268 26.7724C27.3748 25.5131 27.1973 24.2636 26.9877 23.0239C26.9217 22.6999 26.8908 22.3642 26.7757 22.0539C26.0852 22.0931 25.3941 22.1316 24.7036 22.1414ZM1.81259 28.4392C1.58667 28.7573 1.59454 29.2446 1.82531 29.5594C2.95675 31.4431 4.07486 33.3347 5.20933 35.2164C5.95736 33.2204 6.67753 31.2119 7.41891 29.2132C7.45888 29.0943 7.51582 28.9637 7.44495 28.8448C6.6951 26.8246 5.97917 24.788 5.2057 22.7796C4.05911 24.6542 2.94948 26.5555 1.81259 28.4392ZM23.9629 22.7828C23.8956 22.9311 23.8339 23.0826 23.7806 23.2361C23.0919 25.1486 22.3717 27.048 21.6927 28.9631C21.7509 29.2923 21.9071 29.5888 22.0077 29.903C22.6643 31.6613 23.2863 33.4353 23.9574 35.1877C24.2912 34.7396 24.5419 34.2269 24.8411 33.752C25.7164 32.2883 26.5922 30.8233 27.465 29.3576C27.5456 29.0767 27.5583 28.7194 27.382 28.4732C26.2342 26.5829 25.1282 24.6607 23.9629 22.7828ZM7.83381 30.6345C7.17602 32.4555 6.49219 34.2667 5.84168 36.0904C6.49098 36.6756 7.17966 37.2112 7.84108 37.7814C8.63393 38.4287 9.40377 39.108 10.2057 39.7442C9.43769 36.6821 8.68057 33.6155 7.91194 30.5542C7.89196 30.5731 7.85259 30.6143 7.83381 30.6345ZM21.256 30.5529C20.5062 33.6149 19.7182 36.6651 18.9835 39.7311C20.442 38.5299 21.8962 37.319 23.3336 36.0891C22.7127 34.3719 22.0761 32.6619 21.4535 30.9467C21.3971 30.8102 21.3675 30.6515 21.256 30.5529ZM1.7393 31.174C1.835 32.769 2.02822 34.3667 2.3874 35.9173C3.09848 35.8872 3.80957 35.8598 4.52005 35.8154C3.59152 34.2693 2.68055 32.7096 1.7393 31.174ZM26.1573 33.2955C25.6685 34.1381 25.1343 34.9506 24.6776 35.8147C25.3887 35.8533 26.101 35.9107 26.8115 35.8977C27.1107 34.3432 27.3614 32.769 27.4268 31.1819C26.9914 31.8775 26.5807 32.592 26.1573 33.2955ZM2.58001 36.8467C2.99309 38.605 3.54427 40.33 4.24688 41.9773C4.41102 40.2379 4.62786 38.5038 4.80836 36.7651C4.06517 36.7572 3.3232 36.8252 2.58001 36.8467ZM24.3638 36.7657C24.5389 38.4097 24.7303 40.0511 24.9035 41.6951C24.9047 41.7696 24.932 41.831 24.9841 41.88C25.6322 40.249 26.1967 38.5743 26.5892 36.8493C25.8472 36.8226 25.1058 36.7579 24.3638 36.7657ZM5.64119 37.1563C5.41769 39.2125 5.19116 41.2686 4.9616 43.3248C4.93132 43.49 4.93556 43.6892 5.1003 43.7689C7.00522 44.9557 8.91073 46.1445 10.8211 47.3195C10.7327 45.2869 10.6533 43.2503 10.5279 41.2203C8.89256 39.8741 7.28989 38.4822 5.64119 37.1563ZM18.6346 41.234C18.5255 43.2614 18.442 45.2908 18.3457 47.3182C20.2548 46.1497 22.1561 44.9642 24.0549 43.7774C24.2348 43.699 24.2336 43.4842 24.2076 43.3071C23.9829 41.2536 23.7509 39.2014 23.531 37.1472C21.8865 38.494 20.2663 39.8709 18.6346 41.234ZM11.4801 42.5932C11.5461 44.1955 11.6339 45.797 11.6975 47.3999C11.8041 47.3744 11.9083 47.3352 12.0052 47.2803C12.5982 46.9609 13.1991 46.6566 13.7951 46.3404C13.8175 46.3202 13.8623 46.2771 13.8847 46.2568C13.0779 45.0406 12.2832 43.814 11.4801 42.5932ZM15.8332 45.4286C15.663 45.7258 15.4238 45.9832 15.2923 46.3052C16.027 46.6526 16.726 47.0896 17.4716 47.4077C17.5346 45.8212 17.634 44.2373 17.6812 42.6507C17.0307 43.5482 16.4559 44.5077 15.8332 45.4286ZM5.86893 45.3489C6.75506 46.989 7.79383 48.5318 8.93436 49.9753C9.33291 49.5886 9.70238 49.1673 10.0973 48.7748C10.2463 48.5919 10.4498 48.456 10.5564 48.2385C8.98402 47.2947 7.44011 46.2947 5.86893 45.3489ZM18.6037 48.2477C19.124 48.8473 19.6812 49.411 20.2385 49.972C21.3826 48.5351 22.4105 46.9877 23.3045 45.3568C21.7224 46.2908 20.1809 47.3032 18.6037 48.2477ZM14.3366 47.104C13.5225 47.5436 12.6945 47.9551 11.8817 48.3972C12.7181 50.4573 13.5831 53.1588 14.425 55.2176C14.4734 55.3371 14.5207 55.4592 14.5952 55.5644C15.4977 53.3952 16.4026 50.5742 17.2851 48.3972C16.4347 47.9283 15.5661 47.4991 14.7109 47.0413C14.5879 46.9479 14.4541 47.0517 14.3366 47.104ZM9.52188 50.697C10.746 52.1849 12.3518 54.3252 13.7927 55.5656C13.0132 53.627 11.9653 50.9106 11.1512 48.9884C10.6079 49.5559 10.0567 50.1183 9.52188 50.697ZM18.0149 48.9929C17.2009 50.9198 16.1083 53.6322 15.3069 55.5656C16.754 54.3259 18.4183 52.1915 19.6485 50.7023C19.1161 50.1209 18.571 49.5501 18.0149 48.9929Z" fill="currentColor"></path></svg>