<svg width="36" height="36" viewBox="0 0 41 58" fill="none" xmlns="http://www.w3.org/2000/svg" color="black" class="sc-EHOje dOAnFC"><path d="M20.8002 0.707031C15.2704 0.707031 10.3016 3.93789 6.73837 9.06607C3.17491 14.1943 0.980469 21.237 0.980469 29.0144C0.980469 36.776 3.17491 43.8103 6.73837 48.9345C10.3016 54.0586 15.2704 57.2936 20.8002 57.2936C26.3141 57.2936 31.2742 54.0586 34.8333 48.9345C38.3924 43.8104 40.5911 36.776 40.5911 29.0144C40.5911 21.237 38.3924 14.1942 34.8333 9.06607C31.2742 3.93799 26.3141 0.707031 20.8002 0.707031V0.707031ZM20.2794 1.64211L16.4022 8.52769L12.6119 4.33401C14.9463 2.70114 17.547 1.75064 20.2794 1.64211V1.64211ZM21.4078 1.64211C24.0128 1.76316 26.4818 2.67089 28.7282 4.19233L25.285 7.98932L21.4078 1.64211ZM20.8581 2.52052L24.6484 8.69771L20.5977 13.1464L17.0677 9.26442L20.8581 2.52052ZM29.4804 4.73071C30.9752 5.86414 32.3557 7.2655 33.5891 8.9244L25.7479 8.89628L25.8053 8.86817L25.7766 8.81194L29.4803 4.73159L29.4804 4.73071ZM11.8596 4.90072L15.5053 8.89606L7.98248 8.92417C9.154 7.35052 10.4503 6.00328 11.8596 4.9005V4.90072ZM15.9972 9.8028L15.6789 16.7451L9.37131 18.0768L7.98248 9.83114L15.9972 9.80302V9.8028ZM25.5743 9.8028L33.5312 9.83092L32.2292 18.105L25.8058 16.9432L25.5743 9.80264V9.8028ZM24.7063 10.0012L24.8799 16.49L21.2053 13.8548L24.7063 10.0012ZM34.4282 10.1145C35.7214 12.0791 36.8192 14.3155 37.6688 16.7734L33.1262 18.3885L34.4282 10.1145ZM7.11446 10.1426L8.50329 18.3883L3.87386 16.8015C4.72021 14.3437 5.82331 12.1085 7.11446 10.1426ZM16.8941 10.4542L19.9611 13.8262L16.6048 16.4331L16.8941 10.4542ZM20.5687 14.5063H20.5974H20.6261L24.6479 17.3965L27.9175 27.399L26.4707 37.8832L20.7129 42.3037L15.7362 37.9965L13.682 27.2007L16.6911 17.5098L20.5681 14.5063H20.5687ZM37.9581 17.5949C38.7586 20.1183 39.2824 22.8573 39.5206 25.7272L33.5023 19.21L37.9581 17.5949ZM15.6789 17.651L13.0748 26.1235L9.63176 18.9545L15.6789 17.651ZM3.6135 17.6791L8.06923 19.1809L2.05098 25.6131C2.29106 22.8135 2.83696 20.1481 3.6135 17.6791V17.6791ZM25.7479 17.8492L31.9399 18.9542L28.5257 26.3782L25.7479 17.8492ZM8.93735 19.5776L12.6409 27.3416L8.50329 33.7454L2.3693 26.6049L8.93735 19.5776ZM32.6343 19.6057L39.1733 26.6613L33.0972 33.7736L29.1043 27.313L32.6343 19.6057ZM1.93524 27.483L7.92461 34.4536L3.0926 38.5906C2.32449 35.6145 1.90635 32.3793 1.90635 29.0132C1.90635 28.4986 1.91561 27.9904 1.93506 27.483H1.93524ZM39.6363 27.5964C39.653 28.0661 39.665 28.5374 39.665 29.0132C39.665 32.3364 39.2579 35.533 38.5076 38.4773L33.7336 34.397L39.6361 27.5964H39.6363ZM28.6993 28.3898L32.4607 34.4252L27.4839 37.4005L28.6993 28.3898ZM12.9881 28.5031L14.7241 37.4855L9.34233 34.1136L12.9881 28.5031ZM9.31344 35.162L14.753 38.5622L15.1871 47.2331L7.14335 47.0064L9.31344 35.162ZM32.8079 35.2472L34.8911 46.4116L26.9053 47.7717L27.4551 38.4492L32.8079 35.2472ZM8.35867 35.2753L6.27543 46.4964C5.08066 44.414 4.08348 42.0647 3.35305 39.5258L8.35867 35.2753ZM33.8206 35.672L38.2475 39.4408C37.5968 41.7228 36.7296 43.8384 35.7013 45.7596L33.8206 35.672ZM26.4712 38.9873L26.0083 47.4315L21.4368 42.8694L26.4712 38.9873V38.9873ZM15.7078 39.1574L20.1057 42.9827L16.084 46.7797L15.7078 39.1574ZM20.8291 43.5212L25.719 48.4232L20.9739 55.5071L16.113 48.1682H16.1704V47.9415L20.8288 43.5212H20.8291ZM34.8043 47.3464C34.572 47.7196 34.3269 48.0692 34.081 48.4232C33.0827 49.8605 31.9734 51.1357 30.7825 52.2202L27.1946 48.6499L34.8043 47.3464ZM7.14335 47.9132L14.6373 48.1398L10.5576 52.0218C9.45075 50.9836 8.42672 49.7693 7.49056 48.4232C7.37334 48.2545 7.2577 48.0862 7.14335 47.9132V47.9132ZM15.3606 48.7066L20.4241 56.3855C17.0847 56.2896 13.937 54.9371 11.2231 52.6169L15.3606 48.7066ZM26.4134 49.1033L30.1171 52.8152C27.557 54.9373 24.6283 56.185 21.5236 56.3572L26.4134 49.1033V49.1033Z" fill="currentColor"></path><path opacity="0.66" fill-rule="evenodd" clip-rule="evenodd" d="M6.71898 9.08895C10.2727 3.96102 15.2453 0.707031 20.8 0.707031C26.3393 0.707031 31.3032 3.96128 34.8527 9.08902C38.4029 14.2177 40.5911 21.2528 40.5911 29.0144C40.5911 36.7601 38.4028 43.7869 34.8527 48.9116C31.3032 54.0352 26.3393 57.2936 20.8 57.2936C15.2452 57.2936 10.2727 54.0355 6.71901 48.9116C3.16443 43.7868 0.980469 36.7601 0.980469 29.0144C0.980469 21.2529 3.1644 14.2178 6.71898 9.08895ZM20.8 1.01966C15.3852 1.01966 10.501 4.1917 6.98617 9.26346C3.47178 14.3343 1.30251 21.3068 1.30251 29.0144C1.30251 36.706 3.47175 43.6701 6.98614 48.737C10.501 53.8049 15.3852 56.981 20.8 56.981C26.199 56.981 31.0746 53.805 34.5854 48.7371C38.0956 43.6702 40.269 36.7059 40.269 29.0144C40.269 21.3069 38.0956 14.3342 34.5854 9.2634C31.0746 4.19162 26.199 1.01966 20.8 1.01966ZM21.1121 1.62322L21.4105 1.63712C24.0291 1.75913 26.5068 2.67402 28.756 4.2013L28.9033 4.30135L25.2229 8.37054L21.1121 1.62322ZM12.9166 4.49718L16.407 8.36921L20.0043 1.964C17.4894 2.11995 15.0901 3.00658 12.9166 4.49718ZM20.2836 1.79326L20.277 1.63708C17.5312 1.74642 14.9218 2.70411 12.5841 4.34357L12.4408 4.44407L16.4687 8.9124L20.4249 1.86809L20.2836 1.79326ZM21.6957 1.96702L25.2739 7.84025L28.4234 4.35812C26.3435 2.97734 24.0778 2.13527 21.6957 1.96702ZM20.8514 2.35075L24.8153 8.82788L20.5991 13.4705L16.9027 9.39473L20.8514 2.35075ZM20.8637 2.98288L17.2932 9.35219L20.5993 12.9975L24.4187 8.79187L20.8637 2.98288ZM29.3042 4.58598L29.509 4.74172C31.0045 5.87868 32.3841 7.28324 33.6157 8.94398L33.8002 9.19276L25.707 9.16367L25.6728 9.0234L25.6202 9.04865L25.5439 8.8989L29.2604 4.79366L29.3042 4.58598ZM29.4302 5.07967L26.015 8.85214L33.1673 8.87785C32.0336 7.39142 30.7794 6.12294 29.4302 5.07967ZM12.0932 4.9747V4.70634L11.831 4.91207C10.4208 6.01843 9.12538 7.36872 7.95595 8.94369L7.77113 9.19259L15.9041 9.16212L12.0932 4.9747ZM11.9139 5.24982C10.6486 6.25985 9.47568 7.47339 8.40452 8.87758L15.1923 8.85215L11.9139 5.24982ZM24.8247 9.70354L25.0161 16.8756L20.9653 13.9629L24.8247 9.70354ZM25.3793 10.0646L25.6081 17.1404L32.2703 18.3485L33.6149 9.78117L25.536 9.75255L25.5354 9.90625L25.3744 9.9087V10.0646L25.3793 10.0646ZM33.2403 10.0925L25.7016 10.0658L25.9218 16.8793L32.0021 17.9818L33.2403 10.0925ZM8.27586 10.0927L9.5957 17.9493L15.5651 16.6857L15.8678 10.066L8.27586 10.0927ZM16.1902 10.0649L15.8758 16.9399L9.33252 18.325L7.89728 9.78139L16.0356 9.75277L16.0361 9.9054L16.1972 9.90887V10.0648L16.1902 10.0649ZM34.2227 9.78388L34.4531 10.1348C35.7432 12.1001 36.8376 14.3357 37.6842 16.7913L37.7339 16.9353L32.8257 18.6851L34.2227 9.78388ZM7.31651 9.81667L8.80585 18.6824L3.8086 16.965L3.85861 16.8194C4.70207 14.3636 5.80176 12.1291 7.08974 10.1629L7.31651 9.81667ZM21.4385 13.9141L24.6771 16.2427L24.5241 10.5087L21.4385 13.9141ZM34.4111 10.6588L33.2261 18.2093L37.3289 16.7467C36.5486 14.5171 35.5623 12.475 34.4111 10.6588ZM4.21446 16.7728C4.99268 14.5422 5.98411 12.4998 7.1355 10.6815L8.40044 18.2114L4.21446 16.7728ZM16.7836 10.1634L20.2001 13.9296L16.4612 16.8412L16.7836 10.1634ZM17.068 10.95L16.8163 16.1639L19.7356 13.8905L17.068 10.95ZM20.5134 14.43H20.6806L24.7543 17.3652L28.0239 27.3939L26.5754 37.9174L20.7072 42.4344L15.6289 38.0277L13.5743 27.2018L16.5846 17.4817L20.5134 14.43ZM20.6013 14.7622L16.8641 17.665L13.9051 27.2194L15.9256 37.8659L20.7197 42.0259L26.2735 37.7508L27.6952 27.4217L24.4787 17.556L20.6013 14.7622ZM37.9222 17.4533L37.9724 17.612C38.7702 20.1334 39.2917 22.8685 39.5287 25.7328L39.5671 26.1957L33.1219 19.1978L37.9222 17.4533ZM15.9529 17.5033L13.1707 26.5793L9.49201 18.8996L15.9529 17.5033ZM33.6759 19.3303L39.1665 25.2918C38.9205 22.6773 38.434 20.179 37.7144 17.8626L33.6759 19.3303ZM9.95288 19.1203L13.1044 25.6995L15.4879 17.9241L9.95288 19.1203ZM3.75311 17.7417L3.59908 17.6962C2.82559 20.1619 2.28192 22.8235 2.04283 25.6189L2.0035 26.0788L8.45523 19.1652L3.80605 17.5941L3.75311 17.7417ZM7.89001 19.3052L3.85871 17.9429C3.15976 20.2071 2.65613 22.6361 2.40631 25.1815L7.89001 19.3052ZM25.4735 17.7099L32.0795 18.892L28.437 26.8331L25.4735 17.7099ZM25.9416 18.1116L28.4885 25.9523L31.6189 19.1275L25.9416 18.1116ZM9.07772 19.3495L12.8898 27.362L8.62164 33.9853L2.30589 26.6138L9.07772 19.3495ZM32.4916 19.3734L39.2364 26.6701L32.976 34.0173L28.8557 27.3331L32.4916 19.3734ZM2.73216 26.6225L8.58465 33.4532L12.5244 27.3395L8.98963 19.9099L2.73216 26.6225ZM32.5843 19.9418L29.2178 27.3116L33.0183 33.4771L38.8114 26.6784L32.5843 19.9418ZM1.93316 27.3351H2.164L8.25288 34.4401L3.14451 38.8252L3.08023 38.5756C2.31508 35.6031 1.89883 32.373 1.89883 29.0131C1.89883 28.4995 1.90804 27.9923 1.92741 27.4856L1.93316 27.3351ZM2.23576 27.9077C2.22571 28.2741 2.22086 28.6419 2.22086 29.0131C2.22086 32.254 2.61106 35.3717 3.3292 38.2494L7.80547 34.4069L2.23576 27.9077ZM39.4078 27.4478H39.6386L39.644 27.5988C39.6605 28.0668 39.6725 28.5375 39.6725 29.0131C39.6725 32.3302 39.2672 35.5217 38.5199 38.4624L38.4562 38.7129L33.4039 34.3834L39.4078 27.4478ZM39.3352 28.0177C39.3445 28.3483 39.3505 28.6797 39.3505 29.0131C39.3505 32.2114 38.9709 35.2906 38.2701 38.1363L33.8527 34.3509L39.3352 28.0177ZM28.5349 27.9297L32.586 34.447L27.226 37.6598L28.5349 27.9297ZM13.1341 28.0848L15.0006 37.7675L9.21441 34.1327L13.1341 28.0848ZM28.735 28.8566L27.633 37.0484L32.1456 34.3435L28.735 28.8566ZM9.65632 34.038L14.5462 37.1097L12.9688 28.9269L9.65632 34.038ZM8.69962 34.8285L6.47197 46.8589L6.25264 46.4756C5.06117 44.3936 4.0674 42.0458 3.33967 39.5096L3.3125 39.4149L8.69962 34.8285ZM9.29049 34.869L14.9589 38.4216L15.4019 47.2935L7.06314 47.0579L9.29049 34.869ZM32.8266 34.9591L34.9637 46.4421L26.6832 47.8561L27.2449 38.3068L32.8266 34.9591ZM9.52293 35.3868L7.44539 46.7559L15.0633 46.9712L14.6452 38.5972L9.52293 35.3868ZM27.5568 38.4872L27.0279 47.4798L34.5892 46.1886L32.5937 35.4662L27.5568 38.4872ZM3.67718 39.5202C4.35048 41.8411 5.24819 43.9996 6.31581 45.9352L8.21978 35.6528L3.67718 39.5202ZM33.4741 35.2217L38.2875 39.3304L38.2607 39.4247C37.6124 41.7046 36.7481 43.8187 35.723 45.739L35.5055 46.1463L33.4741 35.2217ZM33.9551 36.0486L35.6535 45.1821C36.56 43.4191 37.3307 41.4967 37.9233 39.4358L33.9551 36.0486ZM15.5698 38.7348L20.3469 42.9008L15.9784 47.0359L15.5698 38.7348ZM21.6707 42.8076L25.8246 46.9639L26.2452 39.271L21.6707 42.8076ZM26.425 38.9322L26.3247 38.8099L21.1923 42.7779L26.1071 47.6955L26.5858 38.9404L26.425 38.9322ZM15.9283 39.4677L16.266 46.3271L19.8757 42.9102L15.9283 39.4677ZM20.7627 43.2846H20.8971L25.8837 48.2967L20.9716 55.6491L15.8564 47.906H16.0469V47.7712L20.7627 43.2846ZM16.3689 48.1027L20.9731 55.0723L25.4742 48.3351L20.8255 43.6626L16.3689 47.9026V48.1027ZM35.0111 47.0312L34.8282 47.3258C34.6121 47.6739 34.3851 48.0013 34.1591 48.3272C34.1416 48.3525 34.124 48.3778 34.1065 48.4031C33.1102 49.8413 32.0022 51.1186 30.8116 52.2058L30.6962 52.3111L26.8151 48.4388L35.0111 47.0312ZM27.4699 48.6438L30.7058 51.8723C31.8341 50.8255 32.8875 49.6026 33.8393 48.2286L33.8912 48.1537C34.0515 47.9226 34.2097 47.6944 34.3635 47.4599L27.4699 48.6438ZM7.25426 47.8087L7.11862 47.8929C7.23302 48.0665 7.34853 48.235 7.46506 48.4032C8.39883 49.7494 9.42158 50.9657 10.5288 52.0069L10.6416 52.113L15.0688 47.8893L7.25929 47.6524L7.25426 47.8087ZM14.3058 48.1789L7.55734 47.9742C7.61515 48.0592 7.67342 48.1438 7.73223 48.2286C8.62371 49.5139 9.59475 50.6758 10.6405 51.6758L14.3058 48.1789ZM15.4339 48.3516L20.7266 56.3992L20.4222 56.3905C17.0662 56.2938 13.9093 54.9308 11.1943 52.6036L11.0642 52.4921L15.4339 48.3516ZM11.538 52.4801C14.0925 54.6289 17.0232 55.9025 20.125 56.0655L15.3755 48.8438L11.538 52.4801ZM26.3677 48.9922L26.2329 48.9067L21.2085 56.3798L21.5268 56.3621C24.6465 56.1886 27.584 54.9316 30.1459 52.8024L30.2758 52.6944L26.4835 48.8836L26.3677 48.9922ZM26.3922 49.2418L21.8294 56.0282C24.6977 55.7977 27.4101 54.6256 29.806 52.6723L26.3922 49.2418Z" fill="currentColor"></path></svg>