<svg width="36" height="36" viewBox="0 0 34 52" fill="none" xmlns="http://www.w3.org/2000/svg" color="black" class="sc-EHOje dOAnFC"><path fill-rule="evenodd" clip-rule="evenodd" d="M5.02185 0.674805H4.7739L4.61109 0.868041L0.321367 5.95937L0.1875 6.11825V6.32891V44.8996V45.0884L0.297697 45.239L4.58742 51.1017L4.75086 51.3251H5.02185H29.4985H29.7846L29.9469 51.0817L33.8581 45.219L33.9543 45.0748V44.8996V6.32891V6.12297L33.8257 5.96567L29.6622 0.874342L29.499 0.674805H29.2462H5.02185ZM3.93923 9.3042L1.46282 6.31874L5.2698 1.80037H5.36145L8.16431 5.66208L3.93923 9.3042ZM1.27675 7.82396L3.45526 10.4503V40.4241L1.27675 43.0504V7.82396ZM1.30363 44.7475L3.7911 41.7487L8.16793 46.3328L5.36145 50.1995H5.29284L1.30363 44.7475ZM6.72302 50.1995H27.5254L25.4831 46.8228H25.2783H9.17384L6.72302 50.1995ZM29.2125 50.1995H28.8099L26.3338 46.1057L26.3378 45.9517L30.3507 41.7487L32.8446 44.7552L29.2125 50.1995ZM26.3809 44.3039L29.3399 41.2048C28.5278 41.1793 27.552 41.2027 26.4599 41.285L26.3809 44.3039ZM25.266 45.2698L25.3677 41.3833C23.9185 41.5344 22.3123 41.7819 20.641 42.1448C20.1659 42.2479 19.6863 42.3602 19.2042 42.4821C21.3148 43.2107 23.3889 44.1292 25.266 45.2698ZM25.3973 40.2492C23.8677 40.4034 22.1736 40.6619 20.417 41.0433C19.375 41.2695 18.3075 41.5397 17.2362 41.8584C16.1368 41.5397 15.0411 41.2695 13.9715 41.0432C12.2726 40.6839 10.6306 40.4337 9.13397 40.2769L8.37379 25.7448L8.37466 25.7413L8.37332 25.7359L8.35774 25.438L9.17127 10.7266C10.6447 10.6438 12.2591 10.4895 13.9322 10.2366C15.0341 10.07 16.1646 9.86026 17.2996 9.59897C18.3625 9.84691 19.4205 10.0487 20.4527 10.2113C22.1917 10.4851 23.8658 10.6488 25.3782 10.7329L25.7847 25.4376L25.779 25.6558L25.7669 25.7049L25.7767 25.7433L25.3973 40.2492ZM26.4895 40.1544C27.6002 40.074 28.5986 40.0527 29.4382 40.082L26.7652 29.614L26.4895 40.1544ZM32.6837 6.31307L30.2026 9.3042L26.3362 5.97126L26.3341 5.89383L28.8099 1.80037H28.9934L32.6837 6.31307ZM19.7452 8.95259C21.6624 8.37579 23.5423 7.6332 25.2662 6.68422L25.3469 9.60388C23.8936 9.52034 22.2866 9.36149 20.6168 9.09854C20.3278 9.05302 20.0371 9.00442 19.7452 8.95259ZM26.3777 7.47284L26.438 9.65394C27.3541 9.68518 28.1908 9.68598 28.9207 9.66497L26.3777 7.47284ZM29.4493 10.7718C28.603 10.8098 27.5938 10.8179 26.4692 10.7811L26.7694 21.6395L29.4493 10.7718ZM32.8651 7.82396L30.6866 10.4503V40.4241L32.8651 43.0504V7.82396ZM27.5254 1.80037H6.72302L9.17384 5.17705H25.2175H25.4149L25.4597 5.21571L27.5254 1.80037ZM9.23381 9.5957L9.39537 6.67421C11.1007 7.62316 12.9626 8.36707 14.8604 8.94564C14.4965 9.0095 14.1343 9.06849 13.7746 9.12287C12.1804 9.36383 10.6417 9.51318 9.23381 9.5957ZM8.03787 40.1765L7.47025 29.3255L4.75635 40.0807C5.68203 40.051 6.79569 40.0794 8.03787 40.1765ZM8.09717 41.3102L8.28234 44.85L4.80245 41.2053C5.71705 41.1765 6.8372 41.207 8.09717 41.3102ZM9.39537 45.2741L9.19349 41.4148C10.6036 41.5682 12.1493 41.8067 13.7531 42.1459C14.2576 42.2526 14.7671 42.3692 15.2791 42.4959C13.2325 43.2231 11.2203 44.1386 9.39537 45.2741ZM5.22624 9.66055C6.07071 9.68727 7.05542 9.68748 8.1399 9.64782L8.28501 7.02383L5.22624 9.66055ZM7.45636 22.0084L8.0775 10.7763C6.78957 10.8207 5.63918 10.8102 4.69072 10.766L7.45636 22.0084ZM11.1092 6.30261H23.5597C21.5933 7.23957 19.4511 7.93589 17.3012 8.44466C15.1758 7.93493 13.0548 7.23811 11.1092 6.30261ZM17.2401 43.0298C15.0453 43.7014 12.8583 44.5789 10.8716 45.6973H23.7743C21.7385 44.579 19.4939 43.7015 17.2401 43.0298ZM29.5973 14.7299L26.8922 25.6999L29.5973 36.2936V14.7299ZM7.24989 25.7378L4.54451 36.4592V14.7403L7.24989 25.7378Z" fill="currentColor"></path></svg>