<svg width="36" height="36" viewBox="0 0 51 52" fill="none" xmlns="http://www.w3.org/2000/svg" color="black" class="sc-EHOje dOAnFC"><path d="M26.2629 0.501953C24.7786 0.48365 23.291 0.593972 21.8684 0.83395C16.5222 1.73579 11.8653 4.21201 8.03439 8.18896C6.73011 9.54296 5.89687 10.5981 4.9374 12.112C2.39986 16.1159 1.05659 20.5468 0.936398 25.3093C0.806208 30.4682 2.14512 35.4153 4.82931 39.6837C8.44502 45.4334 14.1219 49.4967 20.5367 50.9204C21.4911 51.1324 23.2052 51.4018 24.061 51.4723C24.0667 51.4723 24.0871 51.4723 24.0933 51.4723C25.0407 51.5456 28.0501 51.4638 28.9836 51.3401C34.6722 50.5811 39.5877 48.123 43.6151 44.022C47.5894 39.975 49.986 34.9826 50.7843 29.1014C50.9748 27.6987 50.9757 24.2851 50.786 22.8768C50.6065 21.5426 50.2909 19.9674 49.9897 18.9117C47.3567 9.6847 39.8865 2.7483 30.6367 0.942206C29.2282 0.667191 27.7472 0.520273 26.2629 0.501953ZM27.2237 1.57521C29.0453 1.68615 31.0018 2.01719 32.6816 2.51285C33.1228 2.64302 33.7488 2.85845 34.2633 3.04988C34.5039 3.13935 34.7115 3.22115 34.8723 3.28825C34.8265 3.40928 34.7783 3.53644 34.7062 3.71702C34.5197 4.18404 34.2552 4.82307 33.9597 5.5177C33.6637 6.21344 33.3892 6.8493 33.1859 7.31202C33.138 7.42111 33.1097 7.48238 33.0704 7.57062C32.9948 7.49609 32.9409 7.4442 32.8449 7.34851C32.4609 6.96552 31.925 6.42331 31.3129 5.7993C30.0889 4.5513 28.5599 2.97493 27.322 1.67835L27.2237 1.57521ZM24.6174 1.58105L23.7075 2.49687C22.7919 3.41849 21.3407 4.87716 20.4834 5.73809C19.3792 6.84701 18.8809 7.34512 18.5968 7.60936C18.5407 7.4793 18.4819 7.34232 18.4047 7.16157C18.2074 6.69942 17.9532 6.10008 17.7014 5.50328C17.4495 4.90649 17.2 4.31209 17.012 3.86086C16.9287 3.66106 16.8636 3.5037 16.8098 3.37261C16.9872 3.28619 17.256 3.1733 17.5808 3.05213C18.2435 2.80491 19.1256 2.52242 19.9402 2.31083C21.5331 1.89711 22.9634 1.68028 24.6174 1.58105ZM25.9285 1.74247L29.176 5.08682C30.1452 6.08517 31.0262 6.99845 31.664 7.66487C31.9483 7.9619 32.1629 8.18843 32.3363 8.37248C32.1981 8.44334 32.0707 8.50906 31.8756 8.60687C31.3031 8.89376 30.5116 9.28335 29.6414 9.70593C27.8987 10.5522 26.2759 11.3393 26.0494 11.4479L25.7951 11.5697L25.3274 11.3424C24.5079 10.9436 23.0361 10.2199 21.0783 9.25378C20.2831 8.86134 19.5972 8.52941 19.3099 8.39745C19.3124 8.39405 19.314 8.39349 19.3165 8.38998C19.5352 8.16201 19.8393 7.85173 20.1738 7.51701C20.8466 6.84378 22.4797 5.20551 23.8039 3.8756L25.9285 1.74247ZM35.8509 3.71411C35.8787 3.7242 35.8756 3.71994 35.9104 3.73473C36.1677 3.84299 36.6115 4.07114 37.2822 4.43915C39.0149 5.38996 40.8685 6.7382 42.2145 8.01354L38.3196 8.01578L34.0188 8.01807L34.0316 7.98718C34.4095 7.08375 34.8798 5.97307 35.2622 5.07793C35.4534 4.63036 35.6227 4.23675 35.7471 3.9503C35.7902 3.85109 35.8197 3.78507 35.8509 3.71411ZM15.8529 3.78114C15.861 3.79854 15.8679 3.80687 15.8754 3.82517C15.9678 4.0505 16.4357 5.15387 16.9284 6.30842C17.1745 6.88537 17.4025 7.42021 17.5715 7.81681C17.614 7.91674 17.6085 7.90386 17.6438 7.98694C17.523 7.99091 17.4577 7.99708 17.2768 8.00043C16.5644 8.01352 15.3646 8.01748 13.4554 8.01623L9.67172 8.01399C10.7724 6.98421 12.0847 5.95732 13.3193 5.18484C13.7587 4.90994 14.439 4.52328 15.0204 4.20995C15.3111 4.05328 15.5781 3.91425 15.7763 3.8169C15.8084 3.80115 15.8246 3.79463 15.8529 3.78114ZM8.93919 9.04871H13.3943C14.7281 9.04871 15.9411 9.05381 16.8191 9.06061C17.2006 9.06401 17.4844 9.06732 17.7212 9.07168C17.6374 9.35338 17.5251 9.72559 17.4 10.1358C17.1427 10.9796 16.86 11.912 16.7697 12.2137C16.4694 13.2183 16.1889 14.1335 15.9773 14.8041C15.8715 15.1394 15.7829 15.414 15.7183 15.6057C15.6908 15.6874 15.6701 15.7452 15.6526 15.7933C15.6005 15.8175 15.5137 15.8549 15.3373 15.9218C14.945 16.0705 14.2022 16.3364 12.8025 16.8356C11.7305 17.218 10.3191 17.7237 9.66396 17.96C9.39195 18.0581 9.16228 18.1397 8.95785 18.2119C8.95457 17.9653 8.95132 17.6746 8.94895 17.2814C8.94323 16.3648 8.93923 15.099 8.93923 13.707L8.93919 9.04871ZM38.2993 9.04871H42.7899V10.759C42.7899 11.9279 42.8111 14.1731 42.8369 15.7576C42.8509 16.6162 42.8563 17.3331 42.8532 17.8308C42.8526 17.9408 42.85 17.9947 42.8483 18.0822C42.6449 18.015 42.4079 17.9359 42.1037 17.8324C41.3979 17.5922 40.4712 17.2716 39.548 16.9495C38.6248 16.6273 37.7048 16.3033 37.0125 16.0555C36.6663 15.9316 36.3768 15.8267 36.1738 15.7513C36.1 15.7239 36.0526 15.7054 36.0039 15.6866C35.9973 15.6694 35.9941 15.6615 35.9868 15.6411C35.9423 15.5172 35.8811 15.3376 35.8087 15.1187C35.664 14.6809 35.4744 14.0849 35.276 13.4406C34.7992 11.8916 34.4276 10.68 34.1757 9.85112C34.0717 9.50904 34.0015 9.27497 33.9393 9.06697C34.1782 9.06357 34.4643 9.06029 34.8487 9.05791C35.7335 9.05208 36.9556 9.04871 38.2993 9.04871ZM18.7368 9.27757C18.8959 9.3516 19.0743 9.43575 19.2885 9.54012C21.3347 10.5372 22.8134 11.2603 23.7857 11.739C24.1232 11.9052 24.3216 12.0042 24.5392 12.1126C24.0623 12.3117 22.4949 12.9658 20.4099 13.8352C19.2637 14.3131 18.2141 14.7476 17.4471 15.0624C17.2171 15.1567 17.0728 15.2149 16.8988 15.2856C16.9227 15.2085 16.9371 15.1637 16.9641 15.0762C17.1397 14.5082 17.3774 13.7329 17.6348 12.8869C18.1981 11.0358 18.5033 10.0333 18.6699 9.49173C18.7047 9.37854 18.713 9.3539 18.7368 9.27757ZM32.9219 9.28096C32.9721 9.44099 33.026 9.61216 33.0992 9.84735C33.2842 10.4419 33.5309 11.2397 33.7828 12.0554C34.2271 13.4944 34.6058 14.7318 34.7638 15.2573C34.2193 15.0346 33.0601 14.5612 31.0077 13.7232C29.7706 13.218 28.63 12.7512 27.789 12.4068C27.4882 12.2835 27.2802 12.1983 27.0654 12.1101C27.4591 11.9206 28.0734 11.623 28.835 11.2514C30.2487 10.5615 31.3695 10.0187 32.1376 9.65142C32.4802 9.48758 32.726 9.37191 32.9219 9.28096ZM43.8051 9.69109C44.7754 10.7989 45.7995 12.1811 46.5646 13.4804C46.7949 13.8716 47.128 14.499 47.4185 15.0781C47.6863 15.612 47.8961 16.0759 47.9752 16.279C47.9752 16.279 47.973 16.2796 47.9695 16.2807C47.8467 16.3313 47.6812 16.4005 47.4835 16.4838C47.0882 16.6503 46.5651 16.8728 46.0091 17.1116C44.9974 17.5463 44.1552 17.9038 43.8694 18.0227V16.4667C43.8694 15.2759 43.8517 13.0226 43.8297 11.4518L43.8051 9.69109ZM7.92786 9.84974L7.92869 13.3551L7.9283 13.7612C7.92869 15.1387 7.92746 16.391 7.92424 17.298C7.92341 17.656 7.9218 17.9088 7.92019 18.1455C7.90239 18.1372 7.89472 18.1339 7.87627 18.1253C7.51191 17.957 7.01129 17.725 6.46289 17.4701C5.36447 16.9595 4.27231 16.4577 3.9958 16.3377L3.8916 16.2925C4.09048 15.7832 4.82953 14.3031 5.29837 13.4979C6.00077 12.2916 6.91711 11.0449 7.92786 9.84974ZM25.7776 12.7264C25.7891 12.7304 25.7953 12.7331 25.8099 12.7383C25.8777 12.764 25.9774 12.8028 26.1042 12.8526C26.3578 12.9522 26.7197 13.0962 27.1618 13.2738C28.046 13.6288 29.2519 14.1177 30.5652 14.6541L35.1864 16.5416L36.9209 20.8909C37.9101 23.371 38.7822 25.5605 38.8464 25.7238L38.9129 25.8932L38.7048 26.3897C38.5537 26.7506 37.6536 28.9103 36.7024 31.1941L35.0363 35.194L31.3697 36.7524C29.2709 37.6446 27.1039 38.5638 26.5591 38.793L25.7142 39.1483L23.4606 38.2099C20.4046 36.9377 18.6148 36.1909 17.5823 35.7541C17.0661 35.5356 16.7389 35.3944 16.5407 35.3055C16.4595 35.2686 16.4131 35.2472 16.3735 35.228C16.3637 35.2082 16.357 35.194 16.3443 35.1664C16.2958 35.0613 16.2279 34.909 16.1476 34.7234C15.9869 34.3521 15.775 33.8474 15.5515 33.3023C15.1025 32.2074 14.2319 30.0913 13.6167 28.5987C13.3096 27.8536 13.0305 27.1679 12.8286 26.6648C12.7276 26.4133 12.6459 26.2072 12.5902 26.0635C12.5752 26.0244 12.5674 26.0044 12.5564 25.975C12.582 25.9101 12.6145 25.8301 12.6594 25.7193C12.7615 25.4682 12.9096 25.108 13.0926 24.6666C13.4587 23.7836 13.9639 22.5748 14.5196 21.254L16.4765 16.6024L17.0606 16.3597C18.9185 15.5873 23.6012 13.6335 24.2453 13.362C24.9551 13.0627 25.3637 12.8925 25.596 12.8027C25.8105 12.7199 25.8284 12.7304 25.7776 12.7264ZM36.4983 17.0286C36.6279 17.0712 36.7193 17.1007 36.8755 17.1524C37.557 17.3783 38.4652 17.6831 39.3741 17.9905C40.2829 18.2978 41.1928 18.6077 41.8781 18.844C42.1776 18.9472 42.4094 19.0285 42.6036 19.097C42.5871 19.1278 42.5791 19.1436 42.5609 19.1778C42.3988 19.4816 42.1723 19.9018 41.9201 20.3669C41.4156 21.297 40.8079 22.4077 40.4056 23.1294C40.2365 23.4327 39.8964 24.0574 39.6451 24.5259C39.61 24.5917 39.5856 24.632 39.5521 24.6933C39.5472 24.6814 39.5448 24.6774 39.5401 24.6649C39.3498 24.2056 39.0918 23.5693 38.8129 22.8694C38.2542 21.4666 37.4351 19.4103 36.9925 18.2995C36.7964 17.8074 36.6325 17.3826 36.4983 17.0286ZM15.1367 17.1171C15.0964 17.2161 15.0883 17.2408 15.036 17.3678C14.692 18.2018 14.0733 19.6737 12.9958 22.2276C12.6225 23.1123 12.2804 23.9193 12.0303 24.5062C11.9916 24.5972 11.9719 24.6425 11.9378 24.7223C11.906 24.6607 11.894 24.6399 11.8577 24.5697C11.5437 23.9609 11.0618 23.0098 10.3833 21.6612C10.0222 20.9435 9.55343 20.0225 9.33814 19.6075C9.26638 19.4692 9.21455 19.3617 9.16006 19.2502C9.35307 19.1777 9.59502 19.089 9.90038 18.978C10.5727 18.7337 11.4649 18.4134 12.3562 18.0959C13.2475 17.7785 14.1378 17.4641 14.8062 17.2309C14.9429 17.1832 15.0204 17.1573 15.1367 17.1171ZM48.3672 17.2408C48.4354 17.4518 48.5295 17.7389 48.688 18.215C49.389 20.3209 49.7475 22.2379 49.9015 24.6633C49.7941 24.5563 49.7236 24.4869 49.5947 24.3579C48.9806 23.7434 48.1379 22.8952 47.2151 21.9622L44.2752 18.9903C44.5086 18.8876 44.8408 18.7424 45.2197 18.5802C45.6881 18.3798 46.6427 17.9696 47.3422 17.668C47.6894 17.5183 48.0147 17.3822 48.2564 17.2845C48.3026 17.2658 48.3276 17.2565 48.3672 17.2408ZM3.51664 17.2703C3.63727 17.3235 3.76123 17.3784 3.93268 17.4555C4.38384 17.6582 4.98167 17.9299 5.58013 18.2035C6.17859 18.4771 6.77818 18.7527 7.23225 18.9638C7.35342 19.0204 7.42976 19.0565 7.52737 19.1023C7.42054 19.2136 7.34815 19.2911 7.16148 19.481C6.55126 20.1018 5.47201 21.1855 3.62123 23.0391C2.8464 23.8152 2.32276 24.3311 1.973 24.674C2.06851 23.1319 2.28222 21.5749 2.59513 20.2409C2.70433 19.7754 2.95898 18.9231 3.19391 18.2039C3.31138 17.8443 3.42476 17.5152 3.51158 17.2829C3.51403 17.2771 3.51502 17.2754 3.51664 17.2703ZM43.4847 19.6936C43.6587 19.8647 43.8785 20.0824 44.1636 20.3667C44.7907 20.9919 45.6506 21.8551 46.5914 22.8048L49.7265 25.969L46.5941 29.0992C45.6537 30.0388 44.7937 30.8931 44.1663 31.5118C43.8843 31.79 43.6684 32.0011 43.4948 32.1698C43.3983 31.9997 43.2924 31.8129 43.1511 31.559C42.8011 30.9305 42.3382 30.0892 41.8754 29.2432C41.4126 28.3972 40.9498 27.5461 40.6012 26.8975C40.4269 26.5732 40.2811 26.2994 40.1785 26.1035C40.1374 26.0252 40.1095 25.9695 40.0837 25.9186C40.0837 25.9186 40.0844 25.9186 40.0853 25.9101C40.1303 25.8079 40.2133 25.639 40.338 25.3997C40.5874 24.9209 41.0053 24.1549 41.6538 22.9835C42.0504 22.2669 42.6757 21.1357 43.0435 20.4692C43.2113 20.165 43.362 19.9005 43.4844 19.6902L43.4847 19.6936ZM8.29335 19.8408C8.3069 19.8658 8.31351 19.8766 8.32796 19.9041C8.49142 20.2114 8.71213 20.6391 8.94853 21.1094C9.42406 22.0553 10.1932 23.5773 10.6586 24.4935L11.4102 25.9728L9.82611 29.1688C9.36581 30.0976 8.94199 30.9423 8.63047 31.5533C8.51506 31.7796 8.43475 31.9339 8.3544 32.088C8.28403 32.0205 8.23421 31.9731 8.14482 31.8865C7.78592 31.5387 7.28176 31.0454 6.6949 30.4681C5.52118 29.3135 4.01562 27.8224 2.66979 26.4778L2.15886 25.9672L3.1667 24.9563C5.30313 22.8133 6.66697 21.4482 7.50132 20.62C7.87557 20.2484 8.11162 20.0168 8.29335 19.8408ZM39.528 27.1062C39.6093 27.2525 39.6784 27.3763 39.7823 27.565C40.129 28.1947 40.5842 29.0281 41.0363 29.8596C41.4884 30.6909 41.9375 31.5206 42.2716 32.1428C42.4086 32.3981 42.5097 32.5884 42.6001 32.7592C42.5239 32.7847 42.4714 32.8023 42.3777 32.8341C41.9708 32.9704 41.4113 33.1564 40.7979 33.3592C39.5902 33.7588 37.9705 34.2979 37.1352 34.5781H37.1336L37.0729 34.5991C36.773 34.6998 36.5318 34.7788 36.293 34.8573C36.3542 34.7095 36.4072 34.5815 36.4878 34.3874C36.7464 33.7642 37.0949 32.9267 37.4688 32.0293C38.2164 30.2346 39.0658 28.1998 39.5015 27.1624C39.5115 27.138 39.5182 27.1283 39.528 27.1062ZM1.97145 27.2358C2.15402 27.4165 2.3348 27.5971 2.63051 27.8907C4.29706 29.5454 6.05131 31.2852 7.07711 32.3015C7.29736 32.5198 7.48582 32.7113 7.64091 32.8711C7.4804 32.9622 7.32519 33.0502 6.96668 33.2455C6.16839 33.6805 5.98292 33.7834 4.43465 34.6491C4.13391 34.8173 3.85926 34.9691 3.65389 35.0806C3.60091 34.9479 3.5458 34.8094 3.47659 34.6163C3.29512 34.1095 3.07565 33.4419 2.89335 32.8231C2.41523 31.2 2.10448 29.2885 1.97145 27.2358ZM11.9433 27.2443C12.0564 27.5147 12.1731 27.7938 12.3309 28.1741C12.7446 29.1708 13.2815 30.4725 13.7847 31.7C13.9809 32.1784 14.4086 33.2166 14.7358 34.0088C14.8572 34.3029 14.9533 34.5421 15.0472 34.7762C14.6682 34.6377 13.131 34.0861 11.6131 33.5439C10.8537 33.2726 10.1608 33.0234 9.65657 32.8407C9.48101 32.7774 9.36377 32.734 9.23936 32.6884C9.3152 32.5296 9.39884 32.355 9.51737 32.1117C9.81016 31.5106 10.218 30.6829 10.6695 29.7756C11.1208 28.8683 11.5342 28.0461 11.8355 27.4538C11.8808 27.3648 11.9033 27.3224 11.9433 27.2443ZM49.898 27.2732C49.7312 29.9342 49.3152 32.0048 48.4341 34.4985C48.3596 34.7093 48.2885 34.8849 48.226 35.0328C48.1372 34.988 48.0502 34.9445 47.9465 34.8877C47.6234 34.7106 46.5694 34.153 45.5844 33.6375C45.0942 33.3809 44.6481 33.1429 44.3269 32.9676C44.2945 32.9501 44.2809 32.9415 44.2511 32.9251C44.2733 32.9019 44.2834 32.8911 44.3075 32.866C44.559 32.6062 44.9079 32.2517 45.2916 31.8669C47.8717 29.2792 49.4124 27.747 49.898 27.2732ZM9.03173 33.7449C9.20011 33.8032 9.36678 33.8605 9.60408 33.9437C10.2535 34.1711 11.1208 34.4783 11.9946 34.7897C12.8683 35.101 13.7486 35.4162 14.4236 35.6607C14.761 35.7828 15.0472 35.8876 15.2549 35.9644C15.3587 36.0029 15.4429 36.0344 15.5029 36.0573C15.5261 36.0664 15.5173 36.0658 15.5348 36.0698C15.5673 36.1331 15.6283 36.2814 15.7152 36.5323C15.889 37.0338 16.1744 37.9506 16.676 39.587C16.9838 40.5915 17.2636 41.5105 17.4665 42.1818C17.5437 42.4374 17.5975 42.6169 17.6496 42.7913C17.4152 42.7998 17.1343 42.8021 16.7561 42.8061C15.8844 42.8163 14.6799 42.8219 13.355 42.8219H8.93526L8.98 38.2218C8.99347 36.8443 9.00751 35.5901 9.01885 34.6793C9.02374 34.2857 9.02797 33.9922 9.03173 33.7449ZM42.8385 33.8041C42.8425 34.0546 42.8469 34.3583 42.8521 34.7619C42.8639 35.6795 42.8777 36.9433 42.8914 38.3307L42.9369 42.9669H38.3394C36.9656 42.9669 35.7164 42.9584 34.8124 42.951C34.4077 42.951 34.1017 42.9419 33.8562 42.9363C33.8611 42.9187 33.8628 42.9114 33.8679 42.8938C33.9569 42.5774 34.0798 42.1468 34.2151 41.6801C34.4866 40.7438 34.9693 39.0643 35.2883 37.9459L35.8089 36.1203L39.4705 34.9074C40.5319 34.5557 41.4984 34.2382 42.2 34.0102C42.4693 33.9227 42.6572 33.862 42.8385 33.8041ZM8.00134 33.8648L7.95938 38.1468C7.94608 39.513 7.9322 40.7573 7.92053 41.6609C7.91808 41.858 7.91647 41.9661 7.91399 42.1285C7.64917 41.8195 7.35516 41.4718 7.14257 41.2017C6.5662 40.4693 5.88411 39.4629 5.34697 38.5498C5.13895 38.1961 4.78198 37.5192 4.48339 36.926C4.3341 36.6294 4.19831 36.3521 4.10196 36.1455C4.08547 36.1103 4.07829 36.0922 4.06424 36.0609C4.15224 36.0054 4.2287 35.9559 4.4274 35.842C4.98149 35.5245 6.01503 34.9549 7.90078 33.92L8.00134 33.8648ZM43.8576 33.9016L44.0711 34.0167C44.5207 34.259 45.6162 34.8378 46.5137 35.3069C46.9616 35.541 47.3708 35.7556 47.6692 35.9126C47.7414 35.9511 47.7829 35.9725 47.8411 36.0034C47.7926 36.1123 47.7442 36.2216 47.6743 36.369C47.4828 36.7731 47.2302 37.2803 47.0125 37.6894C46.4904 38.6704 45.5029 40.1955 44.7818 41.1329C44.5405 41.4466 44.2094 41.8366 43.9455 42.1404L43.9439 41.0512C43.9423 39.8694 43.9193 37.6269 43.8933 36.0597L43.8576 33.9016ZM34.6339 36.5138C34.2852 37.7212 33.275 41.2308 33.0413 42.0479C32.9638 42.3189 32.8939 42.5475 32.8336 42.7388C32.6407 42.6435 32.3982 42.5225 32.0949 42.37C31.4322 42.0369 30.5572 41.5937 29.6861 41.15C28.815 40.7064 27.9479 40.2629 27.3007 39.9288C27.1642 39.858 27.0873 39.8178 26.9725 39.7582C27.0675 39.7174 27.1251 39.6916 27.2353 39.644C27.8558 39.3768 28.7046 39.0152 29.6301 38.6246C30.293 38.3449 31.2178 37.9534 31.6862 37.7541C32.1539 37.5551 33.1827 37.1174 33.9729 36.7812C34.2885 36.6469 34.4358 36.5924 34.6339 36.5138ZM16.8362 36.6055C17.264 36.7724 17.8284 36.9972 18.4537 37.2507C19.7527 37.7776 21.2602 38.4037 22.0577 38.7555C22.2526 38.8414 23.0212 39.1634 23.8016 39.4869C24.0576 39.5931 24.254 39.6759 24.4638 39.7642C24.0626 39.9576 23.3343 40.3136 22.7149 40.6201C22.0532 40.9474 21.192 41.3709 20.8046 41.5593C20.4144 41.7491 19.6876 42.1036 19.189 42.3474C18.9901 42.4446 18.8261 42.5239 18.6746 42.5968C18.6214 42.4281 18.5642 42.2454 18.4845 41.988C18.2848 41.3437 18.0115 40.4543 17.7134 39.4758C17.4151 38.4967 17.1403 37.5968 16.9377 36.9355C16.8956 36.7979 16.8717 36.721 16.8362 36.6055ZM25.7333 40.3433C25.7885 40.3682 25.8574 40.4008 25.9491 40.4449C26.1542 40.543 26.4405 40.683 26.7792 40.8506C27.4568 41.1857 28.3449 41.6309 29.2273 42.0769C30.1097 42.5228 30.9869 42.9696 31.6419 43.308C31.906 43.4445 32.1002 43.5464 32.2772 43.64C32.192 43.7318 32.1219 43.8078 32.0078 43.9291C31.6273 44.3339 31.1013 44.8871 30.5225 45.4891C29.3632 46.6949 27.7928 48.3266 27.0332 49.1154L25.9312 50.2593L22.5488 46.8447C21.541 45.8274 20.6248 44.8971 19.9612 44.2187C19.6617 43.9124 19.434 43.6773 19.2528 43.4893C19.3169 43.4559 19.3555 43.4354 19.4316 43.3961C19.8299 43.1927 20.3822 42.9174 20.9893 42.6203C22.2068 42.0245 23.7889 41.2497 24.5058 40.8981C24.8592 40.7248 25.1949 40.5694 25.4452 40.461C25.5658 40.4083 25.6642 40.369 25.7333 40.3433ZM13.3846 43.8545C15.2936 43.8545 16.4934 43.8546 17.206 43.8705C17.3921 43.8705 17.4609 43.8795 17.5835 43.884C17.1796 44.8835 15.919 47.9925 15.8338 48.1981C15.7203 48.1454 15.5956 48.0875 15.4501 48.0134C13.1663 46.8499 11.1721 45.4382 9.56286 43.8562H13.3846V43.8545ZM33.9511 43.997H38.2457H42.1549C40.5866 45.5092 38.4063 47.0349 36.3136 48.0667H36.3063C36.1452 48.1458 36.0071 48.2108 35.8817 48.269C35.841 48.184 35.8064 48.1132 35.753 47.9989C35.5779 47.6247 35.3425 47.1116 35.0927 46.5615C34.6537 45.5946 34.2256 44.6277 33.9512 43.9885L33.9511 43.997ZM18.5179 44.3091C18.6982 44.4807 18.9139 44.6887 19.2014 44.9711C19.863 45.6207 20.7703 46.5262 21.7618 47.5288L22.4404 48.2147L24.6325 50.4314C24.3655 50.4172 24.226 50.4178 23.4579 50.3437C22.0145 50.2043 20.2708 49.843 18.827 49.3835C18.496 49.2781 17.9164 49.071 17.4183 48.8842C17.1834 48.7961 16.9728 48.7145 16.8071 48.6482C16.8529 48.5208 16.9014 48.3867 16.9715 48.2008C17.1523 47.7213 17.4005 47.0814 17.6539 46.4398C17.9074 45.7981 18.1663 45.1539 18.3682 44.6645C18.4284 44.5186 18.4697 44.4228 18.5179 44.3091ZM33.0175 44.411C33.142 44.6985 33.5537 45.6301 33.9764 46.5801C34.4058 47.5454 34.8249 48.4877 34.9201 48.7029L34.4515 48.8842C32.258 49.734 30.0471 50.2325 27.6413 50.4187C27.4472 50.4335 27.3875 50.4346 27.207 50.4459C27.7871 49.8276 29.1555 48.3988 30.5411 46.9628C31.2822 46.1947 31.994 45.4594 32.5222 44.9169C32.7283 44.7053 32.8768 44.5542 33.0175 44.411Z" fill="currentColor"></path></svg>