<?xml version="1.0" encoding="UTF-8"?>
<!DOCTYPE svg PUBLIC "-//W3C//DTD SVG 1.1//EN" "http://www.w3.org/Graphics/SVG/1.1/DTD/svg11.dtd">
<!-- Creator: CorelDRAW 2020 (64-Bit) -->
<svg xmlns="http://www.w3.org/2000/svg" xml:space="preserve" width="5.20833in" height="5.20833in" version="1.1" style="shape-rendering:geometricPrecision; text-rendering:geometricPrecision; image-rendering:optimizeQuality; fill-rule:evenodd; clip-rule:evenodd"
viewBox="0 0 5208.33 5208.33"
 xmlns:xlink="http://www.w3.org/1999/xlink"
 xmlns:xodm="http://www.corel.com/coreldraw/odm/2003">
 <defs>
  <style type="text/css">
   <![CDATA[
    .fil0 {fill:#6B6A72}
   ]]>
  </style>
 </defs>
 <g id="Layer_x0020_1">
  <metadata id="CorelCorpID_0Corel-Layer"/>
  <g>
   <path class="fil0" d="M440.11 442.71l2083.33 0 0 2083.33 -2083.33 0 0 -2083.33zm1822.91 260.42l-1562.5 0 0 1562.5 1562.5 0 0 -1562.5z"/>
  </g>
  <g>
   <path class="fil0" d="M2684.9 442.71l2083.33 0 0 2083.33 -2083.33 0 0 -2083.33zm1822.91 260.42l-1562.5 0 0 1562.5 1562.5 0 0 -1562.5z"/>
  </g>
  <g>
   <path class="fil0" d="M440.11 2682.29l2083.33 0 0 2083.33 -2083.33 0 0 -2083.33zm1822.91 260.42l-1562.5 0 0 1562.5 1562.5 0 0 -1562.5z"/>
  </g>
  <g>
   <path class="fil0" d="M2684.9 2682.29l2083.33 0 0 2083.33 -2083.33 0 0 -2083.33zm1822.91 260.42l-1562.5 0 0 1562.5 1562.5 0 0 -1562.5z"/>
  </g>
 </g>
</svg>
