<svg width="36" height="36" viewBox="0 0 44 44" fill="none" xmlns="http://www.w3.org/2000/svg" color="black" class="sc-EHOje dOAnFC"><path fill-rule="evenodd" clip-rule="evenodd" d="M7.11721 0.464844H37.3088L43.7483 6.90432V37.0959L37.3088 43.5354H7.11721L0.677734 37.0959V6.90432L7.11721 0.464844ZM7.26968 1.83512L10.8332 6.86594L7.07883 10.6203L2.04801 7.05679L7.26968 1.83512ZM1.7545 8.16844L6.59994 11.6006V32.3996L1.7545 35.8318V8.16844ZM2.04801 36.9434L7.26968 42.1651L10.8332 37.1343L7.07883 33.38L2.04801 36.9434ZM7.97023 32.7485L11.4646 36.2429L14.2654 32.2889L11.9243 29.9478L7.97023 32.7485ZM12.8157 29.3164L14.8968 31.3975L16.9349 28.5202L15.6929 27.2783L12.8157 29.3164ZM16.2908 26.3534L17.8598 27.9223H26.5663L28.1352 26.3534V17.6469L26.5663 16.0779H17.8598L16.2908 17.6469V26.3534ZM15.6929 16.722L16.9349 15.48L14.8968 12.6028L12.8157 14.6839L15.6929 16.722ZM12.5221 15.7955V28.2047L15.214 26.298V17.7023L12.5221 15.7955ZM11.4454 15.0328V28.9674L7.6767 31.6369V12.3634L11.4454 15.0328ZM11.9243 14.0525L14.2654 11.7114L11.4646 7.75733L7.97023 11.2517L11.9243 14.0525ZM12.5762 7.46381L15.2457 11.2325H29.1803L31.8498 7.46381H12.5762ZM32.9614 7.75733L36.4558 11.2517L32.5018 14.0525L30.1607 11.7114L32.9614 7.75733ZM28.4176 12.3092H16.0084L17.9152 15.0012H26.5109L28.4176 12.3092ZM27.4911 15.48L29.5292 12.6028L31.6104 14.6839L28.7331 16.722L27.4911 15.48ZM29.212 17.7023V26.298L31.9039 28.2047V15.7955L29.212 17.7023ZM32.9807 15.0328V28.9674L36.7493 31.6369V12.3634L32.9807 15.0328ZM37.8261 11.6006V32.3996L42.6715 35.8318V8.16844L37.8261 11.6006ZM42.378 7.05679L37.3472 10.6203L33.5928 6.86594L37.1563 1.83512L42.378 7.05679ZM36.0447 1.54161L32.6125 6.38704H11.8135L8.38133 1.54161H36.0447ZM42.378 36.9434L37.3472 33.38L33.5928 37.1343L37.1563 42.1651L42.378 36.9434ZM36.0447 42.4586L32.6125 37.6132H11.8135L8.38133 42.4586H36.0447ZM12.5762 36.5364H31.8498L29.1803 32.7678H15.2457L12.5762 36.5364ZM16.0084 31.691H28.4176L26.5109 28.9991H17.9152L16.0084 31.691ZM27.4911 28.5202L29.5292 31.3975L31.6104 29.3164L28.7331 27.2783L27.4911 28.5202ZM32.5018 29.9478L30.1607 32.2889L32.9614 36.2429L36.4558 32.7485L32.5018 29.9478Z" fill="currentColor"></path></svg>
