<svg width="36" height="36" viewBox="0 0 49 46" fill="none" xmlns="http://www.w3.org/2000/svg" color="black" class="sc-EHOje dOAnFC"><path d="M1.32745 20.3983C1.82487 22.5014 2.54336 24.4939 3.42766 26.3756C5.36207 30.748 8.2913 34.5669 12.1601 37.943C15.421 40.7657 19.3451 43.2563 23.8771 45.3594C23.8771 45.3594 23.8771 45.3594 23.9324 45.3594C23.9877 45.3594 23.9877 45.3594 24.0429 45.3594C24.0982 45.3594 24.1535 45.3594 24.2087 45.3041C38.3023 38.8839 46.2057 28.9216 47.698 15.8599C47.8085 14.8636 47.8638 14.0334 47.8638 13.3139C47.8638 12.8158 47.8085 12.2624 47.7532 11.7643C47.2558 7.83466 44.9898 4.45854 41.729 2.46607C41.729 2.46607 41.729 2.46607 41.6737 2.46607C39.7393 1.30381 37.5285 0.639648 35.0967 0.639648C30.6199 0.639648 25.0378 4.07112 24.0429 4.73527C23.0481 4.07112 17.466 0.639648 12.9892 0.639648C10.5573 0.639648 8.34657 1.30381 6.41215 2.46607C6.41215 2.46607 6.35688 2.46607 6.35688 2.52142C2.70917 4.73527 0.277344 8.77555 0.277344 13.3693C0.277344 14.0888 0.332613 14.919 0.443151 15.9152C0.664227 17.4096 0.940567 18.9593 1.32745 20.3983ZM1.93541 20.5643L7.02011 19.2913L3.70401 25.6562C2.93025 23.9958 2.37756 22.3354 1.93541 20.5643ZM11.3864 14.5869L7.51753 18.4612L1.21691 11.9303L11.3864 8.16673V14.5869ZM11.4969 15.251L12.6576 22.3354L7.95968 18.7932L11.4969 15.251ZM7.62807 19.2913L12.7681 23.1102L11.4969 28.2021L4.09089 26.0989L7.62807 19.2913ZM13.155 23.6084L17.8528 29.4751L11.9943 28.3128L13.155 23.6084ZM4.14616 26.7077L11.11 28.6448L7.51753 32.187C6.2464 30.4713 5.08573 28.6448 4.14616 26.7077ZM7.90442 32.6851L11.4416 29.1429L12.0496 37.0575C10.5021 35.6738 9.12033 34.2348 7.90442 32.6851ZM11.9391 28.8663L18.2949 30.1392L19.5661 36.5594L12.6023 37.3896L11.9391 28.8663ZM18.9582 30.5819L23.6008 34.0688L20.1188 36.3933L18.9582 30.5819ZM12.9892 37.943L19.5661 37.1682L18.4055 41.8173C16.4711 40.5996 14.6472 39.3267 12.9892 37.943ZM18.9029 42.094L20.0083 37.611L23.435 44.5292C21.8874 43.7544 20.3399 42.9795 18.9029 42.094ZM24.0982 44.5292L20.3399 36.9468L24.1535 34.4008L27.967 36.9468L24.0982 44.5292ZM24.5956 34.0688L29.2382 30.5819L28.0776 36.3933L24.5956 34.0688ZM24.6509 44.5846L28.1328 37.611L29.3487 42.0386C27.9118 42.9242 26.309 43.7544 24.6509 44.5846ZM29.8462 41.7619L28.575 37.1682L35.0967 37.9984C33.5491 39.3267 31.7805 40.5443 29.8462 41.7619ZM28.575 36.6147L29.8462 30.1945L36.2021 28.9216L35.4836 37.5003L28.575 36.6147ZM30.2883 29.4751L34.9861 23.6084L36.1468 28.3128L30.2883 29.4751ZM36.0915 37.1128L36.7547 29.1429L40.292 32.6851C39.076 34.2348 37.6943 35.7292 36.0915 37.1128ZM40.6236 32.2424L37.0311 28.7002L44.0502 26.7077C43.1106 28.6448 42.0053 30.4713 40.6236 32.2424ZM36.7547 28.2021L35.4836 23.1102L40.6236 19.2913L44.1607 26.1543L36.7547 28.2021ZM36.6995 15.251L40.2367 18.7932L35.5388 22.3354L36.6995 15.251ZM36.2573 14.3102L29.4593 12.041L36.2573 8.22206V14.3102ZM36.81 14.5869V8.16673L46.9795 11.9303L40.6788 18.4612L36.81 14.5869ZM44.4924 25.7115L41.1763 19.2913L46.261 20.5643C45.8188 22.3354 45.2661 24.0511 44.4924 25.7115ZM47.3111 13.3139C47.3111 13.9781 47.2558 14.8083 47.1453 15.8045C46.9795 17.2435 46.7584 18.6272 46.4268 20.0108L41.2315 18.6825L47.3111 12.4284C47.3111 12.7052 47.3111 13.0372 47.3111 13.3139ZM47.1453 11.3768L37.0311 7.66862L41.6737 3.01954C44.5476 4.84596 46.5926 7.88998 47.1453 11.3768ZM35.1519 1.13776C37.3627 1.13776 39.4077 1.74657 41.1763 2.74281L36.5337 7.39188L31.4489 1.80192C32.7201 1.41449 33.9913 1.13776 35.1519 1.13776ZM36.0915 7.72395L28.7408 11.8196L24.5403 10.4359L30.9515 2.07865L36.0915 7.72395ZM24.3745 5.17804C24.9272 4.84596 27.3591 3.29627 30.1777 2.24469L24.3745 9.71644V5.17804ZM24.3745 10.934L28.0776 12.1517L24.3745 14.1995V10.934ZM23.9877 14.919C24.0429 14.919 24.0429 14.9743 24.0982 14.9743C24.1535 14.9743 24.2087 14.9743 24.2087 14.919L28.7408 12.373L36.1468 14.8636L34.8203 22.8888L29.3487 29.6964L24.0982 33.7367L18.7924 29.7518L13.3208 22.9442L11.9943 14.919L19.4003 12.4284L23.9877 14.919ZM11.9391 14.3102V8.22206L18.7371 11.9856L11.9391 14.3102ZM20.1188 12.1517L23.8218 10.934V14.2548L20.1188 12.1517ZM23.8218 5.17804V9.71644L17.9081 2.18934C20.782 3.24092 23.2692 4.79062 23.8218 5.17804ZM23.656 10.4359L19.4556 11.8196L12.1049 7.72395L17.1343 2.07865L23.656 10.4359ZM13.0444 1.13776C14.2051 1.13776 15.421 1.35915 16.6922 1.74657L11.6627 7.33655L7.02011 2.68746C8.78872 1.74657 10.8337 1.13776 13.0444 1.13776ZM6.52269 3.01954L11.1653 7.66862L1.0511 11.3768C1.6038 7.88998 3.64874 4.90131 6.52269 3.01954ZM0.940567 12.4284L7.02011 18.6825L1.82487 20.0108C1.49326 18.6272 1.27218 17.2435 1.10637 15.8045C0.940567 14.8083 0.885298 13.9781 0.885298 13.3139C0.885298 13.0372 0.885303 12.7052 0.940567 12.4284Z" fill="currentColor" stroke="currentColor" stroke-width="0.5"></path></svg>