<svg width="36" height="36" viewBox="0 0 37 54" fill="none" xmlns="http://www.w3.org/2000/svg" color="black" class="sc-EHOje dOAnFC"><path fill-rule="evenodd" clip-rule="evenodd" d="M35.579 17.453V17.4737L35.58 17.4943C35.588 17.6626 35.5944 17.8319 35.5991 18.0023L29.3663 14.2023L31.4201 6.83279C34.0034 9.69408 35.579 13.4057 35.579 17.453ZM24.5406 31.5188L27.4498 21.0795L28.6764 26.7086L24.5406 31.5188ZM23.1484 33.138L26.9193 19.6065L24.4989 13.166L18.559 10.488L18.4812 10.5577L18.3823 10.4646L13.0996 12.8069L10.1239 20.2298L13.7006 33.2974L18.356 38.712L23.1484 33.138ZM19.2834 9.83878L24.0574 11.9911L22.2495 7.1805L19.2834 9.83878ZM21.2769 6.8493L15.8484 6.8493L18.4964 9.34124L21.2769 6.8493ZM15.2283 7.49655L17.6795 9.8032L13.5739 11.6236L15.2283 7.49655ZM25.6633 13.691L27.3311 18.1288L28.2437 14.8543L25.6633 13.691ZM29.1104 15.1208L27.8715 19.5665L28.2816 20.6579L28.2928 20.6875L28.2995 20.7183L29.417 25.8472L35.3792 18.9128L29.1214 15.0975L29.1104 15.1208ZM28.4852 13.9874L25.2218 12.5161L23.0921 6.8493L30.4745 6.8493L28.4852 13.9874ZM9.16982 20.1777L7.79605 15.1585L7.64744 15.2244L7.58882 15.0986L1.33271 18.9128L7.66697 26.2799L8.96091 20.7125L8.96844 20.68L8.98085 20.6491L9.16982 20.1777ZM9.72833 18.7845L8.63418 14.7868L11.9138 13.3327L9.72833 18.7845ZM14.5128 6.8493L12.3882 12.1494L8.39669 13.9192L6.46165 6.8493L14.5128 6.8493ZM8.39992 27.1324L9.62757 21.8501L12.3218 31.6938L8.39992 27.1324ZM29.7224 26.8704L35.573 20.0658C35.3377 24.6293 33.9202 29.8511 30.8917 35.6153L29.7224 26.8704ZM28.9299 27.7921L23.9723 33.5582L21.6613 41.8509L30.1263 36.7392L28.9299 27.7921ZM21.8517 42.7777L24.3216 45.6505C26.3272 43.0813 28.0281 40.5911 29.4533 38.1874L21.8517 42.7777ZM20.8022 41.5571L22.58 35.1774L18.9485 39.4012L20.8022 41.5571ZM18.356 40.0904L20.5121 42.5981L18.3599 50.3208L16.235 42.5572L18.356 40.0904ZM14.254 35.3195L17.7634 39.4012L15.9488 41.5117L14.254 35.3195ZM12.8753 33.7159L14.9802 41.4066L6.60168 36.7362L8.18204 28.2574L12.8753 33.7159ZM1.12169 20.0457C1.29066 24.6555 2.64647 29.8526 5.85716 35.7791L7.42355 27.3752L1.12169 20.0457ZM12.4349 45.5986L15.1031 42.4953L7.17286 38.0748C8.61696 40.4656 10.3577 42.9707 12.4349 45.5986ZM1.14804 17.503C1.13858 17.6663 1.13059 17.8305 1.1241 17.9954L7.50736 14.1037L5.53883 6.91146C2.99377 9.78095 1.38057 13.4862 1.14804 17.503ZM21.2227 43.4246L23.7543 46.369C22.2705 48.2279 20.6276 50.1273 18.8151 52.0641L21.2227 43.4246ZM15.5221 43.3863L13.0056 46.3131C14.459 48.1144 16.0695 49.9727 17.8497 51.8907L15.5221 43.3863ZM18.9758 0.214599C18.7877 0.208917 18.599 0.206055 18.4097 0.206055C8.57633 0.206055 0.786509 8.03759 0.241452 17.453C-0.295798 26.7336 3.75638 38.237 17.7916 53.143C17.9955 53.3595 18.2015 53.5768 18.4097 53.7948C18.6186 53.5778 18.8254 53.3612 19.0302 53.1451C32.3593 39.0743 36.9344 26.8127 36.487 17.453C36.487 8.11292 28.5604 0.506894 18.9812 0.214762L18.9798 0.212413L18.9758 0.214599ZM18.7369 1.60977L21.2165 5.96353L15.9903 5.96353L18.7369 1.60977ZM22.199 5.86488L25.7026 2.66543C23.7928 1.79899 21.697 1.25998 19.4997 1.12518L22.199 5.86488ZM11.4368 2.57362C13.4436 1.67617 15.6565 1.15236 17.9944 1.09675L14.9241 5.96353H14.9119L11.4368 2.57362ZM26.569 3.08754L23.4197 5.96353L30.5771 5.96353C29.3967 4.82976 28.0463 3.85807 26.569 3.08754ZM6.44483 5.96353C7.66262 4.78094 9.05291 3.77375 10.5768 2.98741L13.6277 5.96353L6.44483 5.96353Z" fill="currentColor"></path></svg>
