<svg width="36" height="36" viewBox="0 0 48 48" fill="none" xmlns="http://www.w3.org/2000/svg" color="black" class="sc-EHOje dOAnFC"><path fill-rule="evenodd" clip-rule="evenodd" d="M47.178 0.464844H45.971H1.31436H0.107424V1.67178V46.3285L0.107422 47.5354H1.31436H45.971H47.178V46.3285V1.67178V0.464844ZM3.27156 46.3285H44.1058L34.1211 42.4059H33.9017H13.555L3.27156 46.3285ZM16.7191 41.199L23.9896 38.4257L31.0489 41.199H16.7191ZM34.5051 41.2601L45.0767 45.4132L40.8221 34.2591H34.5051V41.2601ZM34.5421 33.0522H40.3617L37.4758 25.4864L34.5421 33.0522ZM38.1269 23.807L40.5398 30.1327V17.5843L38.1269 23.807ZM45.971 44.3713L41.7468 33.2968V14.4717L45.971 3.57747V44.3713ZM45.0687 2.56621L40.7355 13.7412H34.5051V6.61647L45.0687 2.56621ZM34.7478 14.9481H40.2675L37.485 22.1241L34.7478 14.9481ZM36.8338 23.8034L33.456 14.9481H33.2982V14.6292L23.5079 10.833L14.4601 14.3021L10.5357 24.2916L13.8947 33.0522H13.9872V33.1994L23.9961 37.1315L32.9971 33.6981L36.8338 23.8034ZM12.7803 34.2591V41.4097L2.22965 45.4341L6.61985 34.2591H12.7803ZM12.602 33.0522L9.8815 25.9567L7.094 33.0522H12.602ZM6.74558 30.6383L9.24102 24.2862L6.74558 17.7779L6.74558 30.6383ZM5.53864 14.63L1.31436 3.61267V44.4632L5.53864 33.7105V33.6556L5.53864 14.63ZM6.9532 14.9481L9.89518 22.6211L12.9096 14.9481H6.9532ZM12.7803 13.7412H6.49044L2.20879 2.57415L12.7803 6.6733V13.7412ZM33.2982 34.875V40.7859L25.6643 37.7869L33.2982 34.875ZM13.9872 40.9493V34.4962L22.3213 37.7703L13.9872 40.9493ZM23.5104 9.53946L30.6519 6.80127H16.4487L23.5104 9.53946ZM13.3837 5.59433H33.7997L44.0302 1.67178H3.22005L13.3361 5.59433H13.3837ZM13.9872 13.1908V7.14129L21.8318 10.1831L13.9872 13.1908ZM33.2982 13.3347V7.07924L25.1866 10.1894L33.2982 13.3347Z" fill="currentColor"></path></svg>
