<?xml version="1.0" encoding="UTF-8"?>
<!DOCTYPE svg PUBLIC "-//W3C//DTD SVG 1.1//EN" "http://www.w3.org/Graphics/SVG/1.1/DTD/svg11.dtd">
<!-- Creator: CorelDRAW 2020 (64-Bit) -->
<svg xmlns="http://www.w3.org/2000/svg" xml:space="preserve" width="5.20833in" height="5.20833in" version="1.1" style="shape-rendering:geometricPrecision; text-rendering:geometricPrecision; image-rendering:optimizeQuality; fill-rule:evenodd; clip-rule:evenodd"
viewBox="0 0 5208.33 5208.33"
 xmlns:xlink="http://www.w3.org/1999/xlink"
 xmlns:xodm="http://www.corel.com/coreldraw/odm/2003">
 <defs>
  <style type="text/css">
   <![CDATA[
    .fil0 {fill:#6B6A72}
   ]]>
  </style>
 </defs>
 <g id="Layer_x0020_1">
  <metadata id="CorelCorpID_0Corel-Layer"/>
  <g id="_2478506016864">
   <g>
    <path class="fil0" d="M3902.17 4047.94l-1228.07 -1659.85 482.26 -543.94 1486.02 -5.61 465.43 549.55 -1205.63 1659.85zm-894.32 -1645.23l892.11 1205.78 877.61 -1208.24 -255.64 -301.85 -1248.46 4.72 -265.63 299.6z"/>
   </g>
   <g>
    <path class="fil0" d="M1452.17 4047.94l-1228.07 -1659.85 482.26 -543.94 1486.02 -5.61 465.43 549.55 -1205.63 1659.85zm-894.32 -1645.23l892.11 1205.78 877.61 -1208.24 -255.64 -301.85 -1248.46 4.72 -265.63 299.6z"/>
   </g>
  </g>
  <g>
   <path class="fil0" d="M1188.24 2534.73l2.81 101.43 2465.19 -5.63c0,0 -104.24,76.07 -92.97,228.21 0,0 140.87,-160.59 580.38,-264.83 0,0 -377.54,-73.26 -586.02,-276.1 0,0 -28.17,135.23 101.43,216.94l-2470.82 0z"/>
   <path class="fil0" d="M4143.65 2933.57l-2.81 101.43 -2465.19 -5.63c0,0 104.24,76.07 92.97,228.21 0,0 -140.87,-160.59 -580.38,-264.83 0,0 377.54,-73.26 586.02,-276.1 0,0 28.17,135.23 -101.43,216.94l2470.82 0z"/>
  </g>
 </g>
</svg>
